<?xml version="1.0" standalone="no"?>
<!DOCTYPE svg PUBLIC "-//W3C//DTD SVG 20010904//EN"
 "http://www.w3.org/TR/2001/REC-SVG-20010904/DTD/svg10.dtd">
<svg version="1.0" xmlns="http://www.w3.org/2000/svg"
 width="248.000000pt" height="116.000000pt" viewBox="0 0 248.000000 116.000000"
 preserveAspectRatio="xMidYMid meet">

<g transform="translate(0.000000,116.000000) scale(0.100000,-0.100000)"
fill="#000000" stroke="none">
<path d="M650 933 c-8 -4 -55 -34 -105 -68 -49 -35 -110 -73 -135 -85 -58 -29
-80 -49 -80 -71 0 -10 -11 -29 -25 -43 -22 -22 -25 -33 -25 -98 0 -40 9 -111
20 -158 24 -104 25 -157 4 -210 -9 -23 -13 -44 -10 -48 15 -15 42 18 55 68 14
51 13 62 -13 191 -38 184 -41 179 135 220 107 26 113 23 131 -64 15 -69 8 -85
-46 -103 -32 -12 -38 -11 -43 3 -4 9 1 21 12 29 15 11 16 17 7 26 -7 7 -12 21
-12 32 0 20 -1 20 -19 -3 -16 -21 -23 -23 -56 -17 -35 7 -37 6 -26 -8 8 -9 20
-16 27 -16 25 0 15 -21 -18 -36 l-33 -15 36 5 c31 4 38 1 48 -20 7 -16 19 -24
36 -24 21 0 30 -9 50 -52 14 -29 25 -60 25 -67 0 -12 3 -12 12 -3 11 11 0 61
-29 130 -2 6 2 12 11 12 9 0 40 24 69 54 l54 54 27 -35 c30 -37 48 -39 22 -1
-24 33 -20 54 16 82 31 24 34 24 51 8 18 -16 18 -15 12 9 -4 18 0 30 19 48 29
27 91 50 118 43 40 -10 30 -33 -48 -115 -57 -59 -93 -108 -128 -175 -41 -77
-60 -101 -108 -138 -59 -46 -88 -86 -88 -124 0 -33 24 -23 41 18 10 25 37 54
75 83 50 38 66 59 109 143 37 72 69 116 120 169 97 99 98 101 84 131 -13 28
-35 38 -84 38 -40 0 -66 -13 -126 -63 -26 -22 -49 -39 -51 -39 -3 0 -8 21 -11
48 -3 26 -9 55 -12 64 -9 22 30 33 100 30 117 -5 175 21 175 77 0 37 -17 50
-81 61 -30 5 -72 14 -94 20 -43 10 -170 12 -195 3z m235 -55 c17 -12 47 -25
68 -28 35 -5 37 -7 24 -24 -19 -26 -93 -32 -141 -12 -31 13 -37 13 -33 2 4
-10 -5 -15 -31 -19 -32 -4 -40 0 -60 24 -24 30 -52 36 -94 20 -13 -4 -36 -11
-53 -15 -39 -10 -27 2 50 49 l60 37 90 -6 c71 -5 96 -11 120 -28z m90 -8 c8
-13 -25 -13 -45 0 -12 8 -9 10 12 10 15 0 30 -4 33 -10z m-288 -62 c33 -42 53
-166 33 -198 -10 -17 -9 -19 -35 72 -10 40 -23 63 -41 74 -23 16 -31 15 -132
-11 -59 -15 -115 -32 -125 -37 -27 -14 -36 1 -12 18 23 17 250 93 281 93 12 1
26 -5 31 -11z m-60 -76 c14 -9 37 -69 47 -123 5 -28 2 -42 -12 -59 l-19 -24
-13 52 c-14 62 -43 102 -73 102 -30 0 -197 -44 -225 -59 -29 -15 -28 0 1 26
28 25 60 37 177 68 111 28 102 27 117 17z"/>
<path d="M1580 770 c0 -64 3 -80 15 -80 12 0 15 16 15 80 0 64 -3 80 -15 80
-12 0 -15 -16 -15 -80z"/>
<path d="M1090 785 c-18 -22 -5 -45 30 -51 40 -8 39 -26 -2 -22 -39 4 -49 -18
-11 -24 39 -5 60 1 67 18 9 24 -4 41 -35 48 -16 3 -29 11 -29 17 0 7 11 9 30
6 22 -5 30 -3 30 8 0 20 -63 20 -80 0z"/>
<path d="M1208 785 c-1 -5 -2 -29 -2 -52 -1 -35 2 -43 17 -43 13 0 17 9 17 39
0 24 5 41 14 44 21 8 36 -13 36 -50 0 -23 5 -33 15 -33 11 0 15 11 15 39 0 24
5 41 14 44 21 8 36 -13 36 -50 0 -23 5 -33 15 -33 18 0 21 60 5 91 -11 20 -54
26 -65 9 -5 -8 -11 -8 -19 -1 -15 13 -95 10 -98 -4z"/>
<path d="M1440 780 c-25 -25 -26 -52 -2 -73 43 -38 112 -16 112 37 0 51 -72
74 -110 36z m70 -15 c18 -22 8 -50 -19 -50 -32 0 -49 28 -32 49 17 20 35 20
51 1z"/>
<path d="M1550 541 c0 -65 3 -81 15 -81 11 0 15 11 15 41 0 36 2 40 23 37 18
-2 23 -10 25 -40 5 -57 32 -51 32 6 0 50 -18 71 -54 64 -21 -4 -25 -1 -28 20
-2 14 -9 27 -15 30 -10 3 -13 -17 -13 -77z"/>
<path d="M1687 614 c-9 -10 2 -24 19 -24 8 0 14 7 14 15 0 15 -21 21 -33 9z"/>
<path d="M1070 514 c0 -41 4 -54 15 -54 9 0 15 9 15 24 0 37 10 56 31 56 20 0
22 -7 19 -52 -1 -22 3 -28 19 -28 15 0 19 6 19 28 -1 46 1 52 22 52 17 0 20
-7 20 -40 0 -29 4 -40 15 -40 11 0 15 12 15 50 0 45 -2 50 -26 56 -14 4 -30 2
-36 -4 -7 -7 -18 -8 -27 -3 -9 5 -35 9 -58 8 l-43 0 0 -53z"/>
<path d="M1307 563 c-15 -14 -6 -25 16 -20 12 4 29 2 37 -3 16 -10 12 -12 -42
-24 -19 -4 -28 -13 -28 -26 0 -26 22 -36 71 -32 l41 4 -5 45 c-3 25 -11 49
-18 54 -17 10 -63 12 -72 2z m54 -68 c0 -5 -9 -11 -21 -13 -20 -3 -27 8 -13
22 10 9 34 3 34 -9z"/>
<path d="M1442 554 c-58 -41 6 -123 69 -88 25 14 22 16 -26 18 -20 1 -31 7
-33 19 -6 30 16 47 51 40 29 -6 31 -5 18 10 -17 21 -50 22 -79 1z"/>
<path d="M1690 525 c0 -25 0 -48 -1 -52 0 -5 7 -9 15 -11 13 -3 16 7 16 52 0
43 -3 56 -15 56 -11 0 -15 -12 -15 -45z"/>
<path d="M1743 554 c-10 -25 2 -89 17 -92 11 -2 15 7 16 34 1 66 54 69 54 3 0
-28 4 -39 15 -39 19 0 21 83 2 98 -17 14 -98 11 -104 -4z"/>
<path d="M1896 548 c-21 -29 -20 -51 2 -70 24 -21 44 -26 65 -19 28 10 20 25
-13 25 -42 1 -38 20 4 21 45 0 52 9 32 40 -21 33 -68 34 -90 3z m72 -15 c2 -9
-7 -13 -27 -13 -31 0 -42 14 -18 23 19 8 40 3 45 -10z"/>
<path d="M2033 564 c-25 -11 -14 -45 17 -57 39 -15 39 -31 0 -25 -39 6 -49 -9
-16 -22 35 -13 76 3 76 30 0 14 -10 24 -30 31 -35 13 -40 31 -7 27 12 -2 24 2
27 7 5 11 -47 17 -67 9z"/>
<path d="M530 195 c-14 -8 -38 -15 -55 -15 -25 -1 -27 -3 -10 -9 24 -10 73 3
94 24 19 19 4 19 -29 0z"/>
</g>
</svg>
