<svg xmlns="http://www.w3.org/2000/svg" version="1.0" preserveAspectRatio="xMidYMid meet" viewBox="28 22.13 75.55 80.85">
  <g transform="translate(0.000000,116.000000) scale(0.100000,-0.100000)" fill="#000000" stroke="none">
    <path d="M650 933 c-8 -4 -55 -34 -105 -68 -49 -35 -110 -73 -135 -85 -58 -29 -80 -49 -80 -71 0 -10 -11 -29 -25 -43 -22 -22 -25 -33 -25 -98 0 -40 9 -111 20 -158 24 -104 25 -157 4 -210 -9 -23 -13 -44 -10 -48 15 -15 42 18 55 68 14 51 13 62 -13 191 -38 184 -41 179 135 220 107 26 113 23 131 -64 15 -69 8 -85 -46 -103 -32 -12 -38 -11 -43 3 -4 9 1 21 12 29 15 11 16 17 7 26 -7 7 -12 21 -12 32 0 20 -1 20 -19 -3 -16 -21 -23 -23 -56 -17 -35 7 -37 6 -26 -8 8 -9 20 -16 27 -16 25 0 15 -21 -18 -36 l-33 -15 36 5 c31 4 38 1 48 -20 7 -16 19 -24 36 -24 21 0 30 -9 50 -52 14 -29 25 -60 25 -67 0 -12 3 -12 12 -3 11 11 0 61 -29 130 -2 6 2 12 11 12 9 0 40 24 69 54 l54 54 27 -35 c30 -37 48 -39 22 -1 -24 33 -20 54 16 82 31 24 34 24 51 8 18 -16 18 -15 12 9 -4 18 0 30 19 48 29 27 91 50 118 43 40 -10 30 -33 -48 -115 -57 -59 -93 -108 -128 -175 -41 -77 -60 -101 -108 -138 -59 -46 -88 -86 -88 -124 0 -33 24 -23 41 18 10 25 37 54 75 83 50 38 66 59 109 143 37 72 69 116 120 169 97 99 98 101 84 131 -13 28 -35 38 -84 38 -40 0 -66 -13 -126 -63 -26 -22 -49 -39 -51 -39 -3 0 -8 21 -11 48 -3 26 -9 55 -12 64 -9 22 30 33 100 30 117 -5 175 21 175 77 0 37 -17 50 -81 61 -30 5 -72 14 -94 20 -43 10 -170 12 -195 3z m235 -55 c17 -12 47 -25 68 -28 35 -5 37 -7 24 -24 -19 -26 -93 -32 -141 -12 -31 13 -37 13 -33 2 4 -10 -5 -15 -31 -19 -32 -4 -40 0 -60 24 -24 30 -52 36 -94 20 -13 -4 -36 -11 -53 -15 -39 -10 -27 2 50 49 l60 37 90 -6 c71 -5 96 -11 120 -28z m90 -8 c8 -13 -25 -13 -45 0 -12 8 -9 10 12 10 15 0 30 -4 33 -10z m-288 -62 c33 -42 53 -166 33 -198 -10 -17 -9 -19 -35 72 -10 40 -23 63 -41 74 -23 16 -31 15 -132 -11 -59 -15 -115 -32 -125 -37 -27 -14 -36 1 -12 18 23 17 250 93 281 93 12 1 26 -5 31 -11z m-60 -76 c14 -9 37 -69 47 -123 5 -28 2 -42 -12 -59 l-19 -24 -13 52 c-14 62 -43 102 -73 102 -30 0 -197 -44 -225 -59 -29 -15 -28 0 1 26 28 25 60 37 177 68 111 28 102 27 117 17z"/>
    <path d="M530 195 c-14 -8 -38 -15 -55 -15 -25 -1 -27 -3 -10 -9 24 -10 73 3 94 24 19 19 4 19 -29 0z"/>
  </g>
</svg>